/* XPM */
static char *_9fd1696188e4bc593e12bedf4c113a5Rd5eSUQgv5kpYim1[] = {
/* columns rows colors chars-per-pixel */
"128 128 10 1 ",
"  c #000031",
". c #73EFC6",
"X c #004A7B",
"o c #002152",
"O c #009CB5",
"+ c white",
"@ c #003163",
"# c #00739C",
"$ c #001042",
"% c black",
/* pixels */
"                                                                                                                                ",
"                                                                                                                                ",
"                                                                                                                                ",
"                                                                                                                                ",
"                                                                                                                                ",
"                                                                                                                                ",
"                                                                                                                                ",
"            .           X                                                   .           X                                       ",
"                                                                                                                                ",
"                                                                                                                                ",
"                         o                                                               o                                      ",
"                         O                            o                                  O                            o         ",
"                        O+O                                                             O+O                                     ",
"                      oO+++Oo       @                                                 oO+++Oo       @                           ",
"              O         O+O                                                   O         O+O                                     ",
"                         O            @                                                  O            @                         ",
"                         o                       @                                       o                       @              ",
"                                                                                                                                ",
"                                                                                                                                ",
"                 X                                      #                        X                                      #       ",
"      X                                                #+#            X                                                #+#      ",
"                                        o               #                                               o               #       ",
"                          @             O                                                 @             O                       ",
"                      @@               @.@                                            @@               @.@                      ",
"                      @@             oO.+.Oo       #                                  @@             oO.+.Oo       #            ",
"         O                             @.@                               O                             @.@                      ",
"                                        O                                                               O                       ",
"                                        o                                                               o                       ",
"       o                                                               o                                                        ",
"      o.o                                                             o.o                                                       ",
"     o.+.o                                                           o.+.o                                                      ",
"      o.o                                                             o.o                                                       ",
"       o                          @                 @                  o                          @                 @           ",
"                                  #                                                               #                             ",
"                                @#+#@                                                           @#+#@                           ",
"  @                               #                     #         @                               #                     #       ",
"                                  @                                                               @                             ",
"                   .                  o       ..              +                    .                  o       ..              + ",
"  ##                                          ..   .              ##                                          ..   .            ",
"  ##                      ##                                      ##                      ##                                    ",
"                          ##                             @@  @                            ##                             @@  @  ",
"      o     X                              +      #      @.           o     X                              +      #      @.     ",
"            O                                                               O                                                   ",
"          XO+OX                              $                 #          XO+OX                              $                 #",
"            O                                                               O                                                   ",
"            X           @             @              .                      X           @             @              .          ",
"   X                                               @     #         X                                               @     #      ",
"                                         O                                                               O                      ",
"                                                             @                                                               @  ",
"     .             #                                                 .             #                                            ",
"                  #+#              @       .   $  +                               #+#              @       .   $  +             ",
"  o                #         @                                    o                #         @                                  ",
"                            @O@                         @                                   @O@                         @       ",
"    @        O             @O+O@                             @      @        O             @O+O@                             @  ",
"                            @O@          @          @                                       @O@          @          @           ",
"                             @                                                               @                                  ",
"  +                    X                                          +                    X                                        ",
"         +        .              X          +     X        o             +        .              X          +     X        o    ",
"     X                                           X#X                 X                                           X#X            ",
"                        #   .        @            X                                     #   .        @            X             ",
"   @        XX                                                     @        XX                                                  ",
"            XX                                                              XX                                                  ",
"         @       #       .                                               @       #       .                                      ",
"                              #                                                               #                                 ",
"                                         oXo                                                             oXo                    ",
"                                         X.X       oOo                                                   X.X       oOo          ",
" #                                       oXo       O+O           #                                       oXo       O+O          ",
"          .                         #              oOo                    .                         #              oOo          ",
"                     @O@                                                             @O@                                        ",
"                     O+O                                    .                        O+O                                    .   ",
"                     @O@                       O                                     @O@                       O                ",
"      X                                                               X                                                         ",
"              X                 X                                             X                 X                               ",
"                @          #                                                    @          #                                    ",
"                                     ..                                                              ..                         ",
"                                     ..   $                 $                                        ..   $                 $   ",
"  $  $$ $            $   $             $ $ $     $         $      $  $$ $            $   $             $ $ $     $         $    ",
"   $ $ $ $ $$$  $   $ $ $ $   $     $$ $$$$ $$  $$$   ##     $     $ $ $ $ $$$  $   $ $ $ $   $     $$ $$$$ $$  $$$   ##     $  ",
"$$$$$ $ $$$$ $$$ $ $ $$$$$   $    $ $ $$$$$$$ $$$$  $ ## $$$$ $ $$$$$ $ $$$$ $$$ $ $ $$$$$   $    $ $ $$$$$$$ $$$$  $ ## $$$$ $ ",
"$$$$$$$$$$#$$$ $$ $ $$$$$$$$   $ $ $ $ $$$$$ $ $$$ $ $$$$$ $ $$$$$$$$$$$$$#$$$ $$ $ $$$$$$$$   $ $ $ $ $$$$$ $ $$$ $ $$$$$ $ $$$",
"$$$$$$$$$#+#$$$$$$  $ $$$$$ $ $$$ $ $ $$$$$$$ $$$$$ $$$$$$$ $ $$$$$$$$$$$#+#$$$$$$  $ $$$$$ $ $$$ $ $ $$$$$$$ $$$$$ $$$$$$$ $ $$",
"$$$$$$$$$$#$$$$$$$$$ $$$$$$$ $$$ $ $$$.$$$$$$$$$$$$$$$$$$$$$ $$$$$$$$$$$$$#$$$$$$$$$ $$$$$$$ $$$ $ $$$.$$$$$$$$$$$$$$$$$$$$$ $$$",
"$$$$$$$$$$$$$$$$$#$ $$$$$$$$$$$$$ $$$$$$$$$$$$O$$$$$$$$$$$$$$$$$$$$$$$$$$$$$$$$$$#$ $$$$$$$$$$$$$ $$$$$$$$$$$$O$$$$$$$$$$$$$$$$$",
"$$$$#$$$$$$$$$$$$$$$$$$$$$$$$$$$$$$$$$$$$$$$$O+O$$$$$$$$$$$$$$$$$$$$#$$$$$$$$$$$$$$$$$$$$$$$$$$$$$$$$$$$$$$$$O+O$$$$$$$$$$$$$$$$",
"$$$$$$$$$$$$$$$$$$$$$$$$$$$$$$$$$$$$$$$$$$$$$$O$$$$$$$$$$$$$$$$$$$$$$$$$$$$$$$$$$$$$$$$$$$$$$$$$$$$$$$$$$$$$$$O$$$$$$$$$$$$$$$$$",
"$$$$$$$$$$$$$$$$$$$$X$$$$$$$$$.$$$$$$$$$$$$$$$$$$$$o$$$$$$$$$$$$$$$$$$$$$$$$$$$$$$$$X$$$$$$$$$.$$$$$$$$$$$$$$$$$$$$o$$$$$$$$$$$$",
"$$$$$$$$$$$$$$.$$$$$$$$$$$$$$$$$$$$$$$$$$$$$$$$$$$$$$$$$o$$$$$$$$$$$$$$$$$$$$$.$$$$$$$$$$$$$$$$$$$$$$$$$$$$$$$$$$$$$$$$$o$$$$$$$",
"$$$$$$o$$$$$$$$$$$$$$$$$$$$$$$$$$$$$$$$$$$$$$$$$$$$$o$o$$$o$o$$$$$$$$$o$$$$$$$$$$$$$$$$$$$$$$$$$$$$$$$$$$$$$$$$$$$$$o$o$$$o$o$$$",
"$o$$$o$o$$o$$$$o$$$$$$$$$o$$$$$$$$$$$$$$$$$o$$$$$o$o$o$o$o$o$o$$$o$$$o$o$$o$$$$o$$$$$$$$$o$$$$$$$$$$$$$$$$$o$$$$$o$o$o$o$o$o$o$$",
"$$$$o$o$oo$$o$$$$$o$$$$$$$$$$$$$$$$$o$$$$$$$$o$$o$ooo$o$o$ooo$o$$$$$o$o$oo$$o$$$$$o$$$$$$$$$$$$$$$$$o$$$$$$$$o$$o$ooo$o$o$ooo$o$",
"o$o$oo$oo$o$$o$$$o$$o$o$o$$$$o$$$$$$$$$$o$o$$$oooooooooooooo$o$oo$o$oo$oo$o$$o$$$o$$o$o$o$$$$o$$$$$$$$$$o$o$$$oooooooooooooo$o$o",
"$o$oo$oo$o$o$$$o$ooo$o$o$o$o$$o$$$o$oo$$$oooooooooooooooooo#oooo$o$oo$oo$o$o$$$o$ooo$o$o$o$o$$o$$$o$oo$$$oooooooooooooooooo#oooo",
"ooo$ooooooo$$$o$ooooooooo$o$$ooo$$ooo$o$ooo+oooooooooooooo#.#oooooo$ooooooo$$$o$ooooooooo$o$$ooo$$ooo$o$ooo+oooooooooooooo#.#ooo",
"oooooooooooooooooooooooooooooo$o$o$ooo$oooooooooooooooooooo#oooooooooooooooooooooooooooooooooo$o$o$ooo$oooooooooooooooooooo#oooo",
"oooooooo.oooooooooooooooooooooooo$ooooooooooooooo..ooooooooooooooooooooo.oooooooooooooooooooooooo$ooooooooooooooo..ooooooooooooo",
"ooooooooooooooooooooo+oooooooooooooXooooooooooooo..oooooooooooooooooooooooooooooooooo+oooooooooooooXooooooooooooo..ooooooooooooo",
"ooooooo@oooooo@oooooooooooooooooooX.Xoo@ooooooooooooooooooooooooooooooo@oooooo@oooooooooooooooooooX.Xoo@oooooooooooooooooooooooo",
"oooooo@o@oo@oooooooooooooooooooooooXoooooooooooooooooooooooooooooooooo@o@oo@oooooooooooooooooooooooXoooooooooooooooooooooooooooo",
"ooooooo@o@ooooooo@ooooooooooooo#ooooooooooooooo@oooooooo#oooooooooooooo@o@ooooooo@ooooooooooooo#ooooooooooooooo@oooooooo#ooooooo",
"oo@o@@o@@@o@@ooo@o@o@o@ooo@ooooooooo@oo@oo@ooo@oo@ooo@oooooooooooo@o@@o@@@o@@ooo@o@o@o@ooo@ooooooooo@oo@oo@ooo@oo@ooo@oooooooooo",
"o@@@o@@o@@@o@@ooo@#@@@ooo@o@o@ooooo@o@o@@@o@o@oo@o@o@o@ooooo@o@oo@@@o@@o@@@o@@ooo@#@@@ooo@o@o@ooooo@o@o@@@o@o@oo@o@o@o@ooooo@o@o",
"@@@@@@@@@@@@@@o@@#+#@@@@oo@@@o@@o@oo@o@@@@@o@@@@o@o@@@o@o@o@o@o@@@@@@@@@@@@@@@o@@#+#@@@@oo@@@o@@o@oo@o@@@@@o@@@@o@o@@@o@o@o@o@o@",
"@@@@@@@@@@@@@@@o@@#@@@@@@@@@@@@o@o@@@@@@@@@@@@@@@@@@@@@@@o@o@o@@@@@@@@@@@@@@@@@o@@#@@@@@@@@@@@@o@o@@@@@@@@@@@@@@@@@@@@@@@o@o@o@@",
"@@@@@@@@@@@@@@@@@@@@@@@@@@@@@@@@@@@@@@@@@@@@@@@@@@@@@@@@@@@@@@@@@@@@@@@@@@@@@@@@@@@@@@@@@@@@@@@@@@@@@@@@@@@@@@@@@@@@@@@@@@@@@@@@",
"@@@@@@@@@@@@@@@@@@@@@@@@@@@@@@@@@@@@@@@@@@@@@@@@@@@@@@@@@@@@@@@@@@@@@@@@@@@@@@@@@@@@@@@@@@@@@@@@@@@@@@@@@@@@@@@@@@@@@@@@@@@@@@@@",
"@@@@@@@@@@@@@@@@@@@@@@@@@@@@@@@@@@@@@@@@@@@@@@@@@@@@@@@@@@@@@@@@@@@@@@@@@@@@@@@@@@@@@@@@@@@@@@@@@@@@@@@@@@@@@@@@@@@@@@@@@@@@@@@@",
"@@@@@@@@@@@@@@@@@@@X@X@@@@@@@@@@@@@@@@@@@@@@@@@@@@@@@@@@@@@@@@@@@@@@@@@@@@@@@@@@@@@X@X@@@@@@@@@@@@@@@@@@@@@@@@@@@@@@@@@@@@@@@@@@",
"@@@@@@@@@@@@X@X@@@X@X@@X@@@@X@@@@X@@@X@X@@@@@@@@@@@@@@@@@@@@@@@@@@@@@@@@@@@@X@X@@@X@X@@X@@@@X@@@@X@@@X@X@@@@@@@@@@@@@@@@@@@@@@@@",
"@X@X@@@X@@@X@X@X@X@X@XX@X@@X@X@XX@@X@@X@X@@X@@@@@@@@@@@@@@@@X@@@@X@X@@@X@@@X@X@X@X@X@XX@X@@X@X@XX@@X@@X@X@@X@@@@@@@@@@@@@@@@X@@@",
"X@X@X@X@X@X@@XXXXXXXXX@XXXX@X@XX@XX@XX@XXXX@X@@@@@X@@@X@@@X@@@XXX@X@X@X@X@X@@XXXXXXXXX@XXXX@X@XX@XX@XX@XXXX@X@@@@@X@@@X@@@X@@@XX",
"XXX@@X@X@@@XXXXXXXXXXXXXXXXX@X@XXXXXXXXXXX@X@@X@@X@X@X@X@@@XXXXXXXX@@X@X@@@XXXXXXXXXXXXXXXXX@X@XXXXXXXXXXX@X@@X@@X@X@X@X@@@XXXXX",
"XXXXXXX@@@XXXXXXXXXXXXXXXXXXXXXXXXXXXXXXXXXXXX@XX@XXX@XXXXXXXXXXXXXXXXX@@@XXXXXXXXXXXXXXXXXXXXXXXXXXXXXXXXXXXX@XX@XXX@XXXXXXXXXX",
"XXXXXXXXXXXXXXXXXXXXXXXXXXXXXXXXXXXXXXXXXXXXXXXXXXXXXXXXXXXXXXXXXXXXXXXXXXXXXXXXXXXXXXXXXXXXXXXXXXXXXXXXXXXXXXXXXXXXXXXXXXXXXXXX",
"XXXXXXXXXXXXXXXXXXXXXXXXXXXXXXXXXXXXXXXXXXXXXXXXXXXXXXXXXXXXXX#XXXXXXXXXXXXXXXXXXXXXXXXXXXXXXXXXXXXXXXXXXXXXXXXXXXXXXXXXXXXXXX#X",
"XX#X#XXX#XXXXXXXXXXXXXXXXXXXXXXXXX#XXXX#X#XXXXXXXXXX#X#X#XXXXXXXXX#X#XXX#XXXXXXXXXXXXXXXXXXXXXXXXX#XXXX#X#XXXXXXXXXX#X#X#XXXXXXX",
"##X#X#X#X#XXXX#XXX#XXXXXX#XX#XX#X#XX#X#X#XX#XXXXX#X#X###X#X#X##X##X#X#X#X#XXXX#XXX#XXXXXX#XX#XX#X#XX#X#X#XX#XXXXX#X#X###X#X#X##X",
"#X#####X#X#X#XX#X#X#X#X##X#X###X####X#X#X####XX##X#X##X####X#####X#####X#X#X#XX#X#X#X#X##X#X###X####X#X#X####XX##X#X##X####X####",
"##X#########X######X#X############################################X#########X######X#X##########################################",
"###################################O###############################################################O############################",
"##################################O#O#O###############O###########################################O#O#O###############O#########",
"####O#######O######O###########OO#OO###O###O######O#OO##O#OO########O#######O######O###########OO#OO###O###O######O#OO##O#OO####",
"##O##O#OOO#O#O#O##O#O######O###O#O#OOO##O#O#O####O#O#O#O#OO#O#####O##O#OOO#O#O#O##O#O######O###O#O#OOO##O#O#O####O#O#O#O#OO#O###",
"#O#OO#OO#OO#OOO#OOOO#O###OO#O#O#OOOO#OOOOO#O##O#O#OOOOOOOOOO#O#O#O#OO#OO#OO#OOO#OOOO#O###OO#O#O#OOOO#OOOOO#O##O#O#OOOOOOOOOO#O#O",
"OOOO#OOOOO#OOOOOOOOOOOO#O#OO#O#OO#OOOOOOOOO#OO#OOOOOOOOOOOOOOOOOOOOO#OOOOO#OOOOOOOOOOOO#O#OO#O#OO#OOOOOOOOO#OO#OOOOOOOOOOOOOOOOO",
"OOOOOOOOOOOOOOOOOOOOOOOOOOOOOOOOOOOOOOOOOOOOOOOOOOOOOOOOOOOOOOOOOOOOOOOOOOOOOOOOOOOOOOOOOOOOOOOOOOOOOOOOOOOOOOOOOOOOOOOOOOOOOOOO",
"OOOOOOOOOOOOOOOOOOOOOOOOOOOOOOOOOOOOOOOOOOOOOOOOOOOOOOOOOOOOOOOOOOOOOOOOOOOOOOOOOOOOOOOOOOOOOOOOOOOOOOOOOOOOOOOOOOOOOOOOOOOOOOOO",
"OOOOOOOOOOOOOOOOOOOOOOOOOOOOOOOOOOOOOOOOOOOOOOOOOOOOOOOOOOOOOOOOOOOOOOOOOOOOOOOOOOOOOOOOOOOOOOOOOOOOOOOOOOOOOOOOOOOOOOOOOOOOOOOO",
"OOOOOOOOOOOOOOOOOOOOOOOOOOOOOOOOOOOOOOOOOOOOOOOOOOOOOOOOOOOOOOOOOOOOOOOOOOOOOOOOOOOOOOOOOOOOOOOOOOOOOOOOOOOOOOOOOOOOOOOOOOOOOOOO"
};
